<?xml version="1.0" encoding="utf-8"?>
<svg xmlns="http://www.w3.org/2000/svg" xmlns:xlink="http://www.w3.org/1999/xlink" style="margin: auto; background: rgb(0, 195, 34); display: block; shape-rendering: auto;" width="137px" height="137px" viewBox="0 0 100 100" preserveAspectRatio="xMidYMid">
<g transform="rotate(0 50 50)">
  <rect x="42.5" y="11.5" rx="7.5" ry="13.5" width="15" height="27" fill="#276e07">
    <animate attributeName="opacity" values="1;0" keyTimes="0;1" dur="1.36986301369863s" begin="-1.3307240704500976s" repeatCount="indefinite"></animate>
  </rect>
</g><g transform="rotate(10.285714285714286 50 50)">
  <rect x="42.5" y="11.5" rx="7.5" ry="13.5" width="15" height="27" fill="#276e07">
    <animate attributeName="opacity" values="1;0" keyTimes="0;1" dur="1.36986301369863s" begin="-1.2915851272015653s" repeatCount="indefinite"></animate>
  </rect>
</g><g transform="rotate(20.571428571428573 50 50)">
  <rect x="42.5" y="11.5" rx="7.5" ry="13.5" width="15" height="27" fill="#276e07">
    <animate attributeName="opacity" values="1;0" keyTimes="0;1" dur="1.36986301369863s" begin="-1.252446183953033s" repeatCount="indefinite"></animate>
  </rect>
</g><g transform="rotate(30.857142857142858 50 50)">
  <rect x="42.5" y="11.5" rx="7.5" ry="13.5" width="15" height="27" fill="#276e07">
    <animate attributeName="opacity" values="1;0" keyTimes="0;1" dur="1.36986301369863s" begin="-1.2133072407045007s" repeatCount="indefinite"></animate>
  </rect>
</g><g transform="rotate(41.142857142857146 50 50)">
  <rect x="42.5" y="11.5" rx="7.5" ry="13.5" width="15" height="27" fill="#276e07">
    <animate attributeName="opacity" values="1;0" keyTimes="0;1" dur="1.36986301369863s" begin="-1.1741682974559684s" repeatCount="indefinite"></animate>
  </rect>
</g><g transform="rotate(51.42857142857143 50 50)">
  <rect x="42.5" y="11.5" rx="7.5" ry="13.5" width="15" height="27" fill="#276e07">
    <animate attributeName="opacity" values="1;0" keyTimes="0;1" dur="1.36986301369863s" begin="-1.1350293542074361s" repeatCount="indefinite"></animate>
  </rect>
</g><g transform="rotate(61.714285714285715 50 50)">
  <rect x="42.5" y="11.5" rx="7.5" ry="13.5" width="15" height="27" fill="#276e07">
    <animate attributeName="opacity" values="1;0" keyTimes="0;1" dur="1.36986301369863s" begin="-1.0958904109589038s" repeatCount="indefinite"></animate>
  </rect>
</g><g transform="rotate(72 50 50)">
  <rect x="42.5" y="11.5" rx="7.5" ry="13.5" width="15" height="27" fill="#276e07">
    <animate attributeName="opacity" values="1;0" keyTimes="0;1" dur="1.36986301369863s" begin="-1.0567514677103715s" repeatCount="indefinite"></animate>
  </rect>
</g><g transform="rotate(82.28571428571429 50 50)">
  <rect x="42.5" y="11.5" rx="7.5" ry="13.5" width="15" height="27" fill="#276e07">
    <animate attributeName="opacity" values="1;0" keyTimes="0;1" dur="1.36986301369863s" begin="-1.0176125244618393s" repeatCount="indefinite"></animate>
  </rect>
</g><g transform="rotate(92.57142857142857 50 50)">
  <rect x="42.5" y="11.5" rx="7.5" ry="13.5" width="15" height="27" fill="#276e07">
    <animate attributeName="opacity" values="1;0" keyTimes="0;1" dur="1.36986301369863s" begin="-0.9784735812133071s" repeatCount="indefinite"></animate>
  </rect>
</g><g transform="rotate(102.85714285714286 50 50)">
  <rect x="42.5" y="11.5" rx="7.5" ry="13.5" width="15" height="27" fill="#276e07">
    <animate attributeName="opacity" values="1;0" keyTimes="0;1" dur="1.36986301369863s" begin="-0.9393346379647748s" repeatCount="indefinite"></animate>
  </rect>
</g><g transform="rotate(113.14285714285714 50 50)">
  <rect x="42.5" y="11.5" rx="7.5" ry="13.5" width="15" height="27" fill="#276e07">
    <animate attributeName="opacity" values="1;0" keyTimes="0;1" dur="1.36986301369863s" begin="-0.9001956947162425s" repeatCount="indefinite"></animate>
  </rect>
</g><g transform="rotate(123.42857142857143 50 50)">
  <rect x="42.5" y="11.5" rx="7.5" ry="13.5" width="15" height="27" fill="#276e07">
    <animate attributeName="opacity" values="1;0" keyTimes="0;1" dur="1.36986301369863s" begin="-0.8610567514677102s" repeatCount="indefinite"></animate>
  </rect>
</g><g transform="rotate(133.71428571428572 50 50)">
  <rect x="42.5" y="11.5" rx="7.5" ry="13.5" width="15" height="27" fill="#276e07">
    <animate attributeName="opacity" values="1;0" keyTimes="0;1" dur="1.36986301369863s" begin="-0.8219178082191779s" repeatCount="indefinite"></animate>
  </rect>
</g><g transform="rotate(144 50 50)">
  <rect x="42.5" y="11.5" rx="7.5" ry="13.5" width="15" height="27" fill="#276e07">
    <animate attributeName="opacity" values="1;0" keyTimes="0;1" dur="1.36986301369863s" begin="-0.7827788649706456s" repeatCount="indefinite"></animate>
  </rect>
</g><g transform="rotate(154.28571428571428 50 50)">
  <rect x="42.5" y="11.5" rx="7.5" ry="13.5" width="15" height="27" fill="#276e07">
    <animate attributeName="opacity" values="1;0" keyTimes="0;1" dur="1.36986301369863s" begin="-0.7436399217221134s" repeatCount="indefinite"></animate>
  </rect>
</g><g transform="rotate(164.57142857142858 50 50)">
  <rect x="42.5" y="11.5" rx="7.5" ry="13.5" width="15" height="27" fill="#276e07">
    <animate attributeName="opacity" values="1;0" keyTimes="0;1" dur="1.36986301369863s" begin="-0.7045009784735811s" repeatCount="indefinite"></animate>
  </rect>
</g><g transform="rotate(174.85714285714286 50 50)">
  <rect x="42.5" y="11.5" rx="7.5" ry="13.5" width="15" height="27" fill="#276e07">
    <animate attributeName="opacity" values="1;0" keyTimes="0;1" dur="1.36986301369863s" begin="-0.6653620352250488s" repeatCount="indefinite"></animate>
  </rect>
</g><g transform="rotate(185.14285714285714 50 50)">
  <rect x="42.5" y="11.5" rx="7.5" ry="13.5" width="15" height="27" fill="#276e07">
    <animate attributeName="opacity" values="1;0" keyTimes="0;1" dur="1.36986301369863s" begin="-0.6262230919765165s" repeatCount="indefinite"></animate>
  </rect>
</g><g transform="rotate(195.42857142857142 50 50)">
  <rect x="42.5" y="11.5" rx="7.5" ry="13.5" width="15" height="27" fill="#276e07">
    <animate attributeName="opacity" values="1;0" keyTimes="0;1" dur="1.36986301369863s" begin="-0.5870841487279842s" repeatCount="indefinite"></animate>
  </rect>
</g><g transform="rotate(205.71428571428572 50 50)">
  <rect x="42.5" y="11.5" rx="7.5" ry="13.5" width="15" height="27" fill="#276e07">
    <animate attributeName="opacity" values="1;0" keyTimes="0;1" dur="1.36986301369863s" begin="-0.5479452054794519s" repeatCount="indefinite"></animate>
  </rect>
</g><g transform="rotate(216 50 50)">
  <rect x="42.5" y="11.5" rx="7.5" ry="13.5" width="15" height="27" fill="#276e07">
    <animate attributeName="opacity" values="1;0" keyTimes="0;1" dur="1.36986301369863s" begin="-0.5088062622309196s" repeatCount="indefinite"></animate>
  </rect>
</g><g transform="rotate(226.28571428571428 50 50)">
  <rect x="42.5" y="11.5" rx="7.5" ry="13.5" width="15" height="27" fill="#276e07">
    <animate attributeName="opacity" values="1;0" keyTimes="0;1" dur="1.36986301369863s" begin="-0.4696673189823874s" repeatCount="indefinite"></animate>
  </rect>
</g><g transform="rotate(236.57142857142858 50 50)">
  <rect x="42.5" y="11.5" rx="7.5" ry="13.5" width="15" height="27" fill="#276e07">
    <animate attributeName="opacity" values="1;0" keyTimes="0;1" dur="1.36986301369863s" begin="-0.4305283757338551s" repeatCount="indefinite"></animate>
  </rect>
</g><g transform="rotate(246.85714285714286 50 50)">
  <rect x="42.5" y="11.5" rx="7.5" ry="13.5" width="15" height="27" fill="#276e07">
    <animate attributeName="opacity" values="1;0" keyTimes="0;1" dur="1.36986301369863s" begin="-0.3913894324853228s" repeatCount="indefinite"></animate>
  </rect>
</g><g transform="rotate(257.14285714285717 50 50)">
  <rect x="42.5" y="11.5" rx="7.5" ry="13.5" width="15" height="27" fill="#276e07">
    <animate attributeName="opacity" values="1;0" keyTimes="0;1" dur="1.36986301369863s" begin="-0.35225048923679053s" repeatCount="indefinite"></animate>
  </rect>
</g><g transform="rotate(267.42857142857144 50 50)">
  <rect x="42.5" y="11.5" rx="7.5" ry="13.5" width="15" height="27" fill="#276e07">
    <animate attributeName="opacity" values="1;0" keyTimes="0;1" dur="1.36986301369863s" begin="-0.31311154598825824s" repeatCount="indefinite"></animate>
  </rect>
</g><g transform="rotate(277.7142857142857 50 50)">
  <rect x="42.5" y="11.5" rx="7.5" ry="13.5" width="15" height="27" fill="#276e07">
    <animate attributeName="opacity" values="1;0" keyTimes="0;1" dur="1.36986301369863s" begin="-0.27397260273972596s" repeatCount="indefinite"></animate>
  </rect>
</g><g transform="rotate(288 50 50)">
  <rect x="42.5" y="11.5" rx="7.5" ry="13.5" width="15" height="27" fill="#276e07">
    <animate attributeName="opacity" values="1;0" keyTimes="0;1" dur="1.36986301369863s" begin="-0.2348336594911937s" repeatCount="indefinite"></animate>
  </rect>
</g><g transform="rotate(298.2857142857143 50 50)">
  <rect x="42.5" y="11.5" rx="7.5" ry="13.5" width="15" height="27" fill="#276e07">
    <animate attributeName="opacity" values="1;0" keyTimes="0;1" dur="1.36986301369863s" begin="-0.1956947162426614s" repeatCount="indefinite"></animate>
  </rect>
</g><g transform="rotate(308.57142857142856 50 50)">
  <rect x="42.5" y="11.5" rx="7.5" ry="13.5" width="15" height="27" fill="#276e07">
    <animate attributeName="opacity" values="1;0" keyTimes="0;1" dur="1.36986301369863s" begin="-0.15655577299412912s" repeatCount="indefinite"></animate>
  </rect>
</g><g transform="rotate(318.85714285714283 50 50)">
  <rect x="42.5" y="11.5" rx="7.5" ry="13.5" width="15" height="27" fill="#276e07">
    <animate attributeName="opacity" values="1;0" keyTimes="0;1" dur="1.36986301369863s" begin="-0.11741682974559685s" repeatCount="indefinite"></animate>
  </rect>
</g><g transform="rotate(329.14285714285717 50 50)">
  <rect x="42.5" y="11.5" rx="7.5" ry="13.5" width="15" height="27" fill="#276e07">
    <animate attributeName="opacity" values="1;0" keyTimes="0;1" dur="1.36986301369863s" begin="-0.07827788649706456s" repeatCount="indefinite"></animate>
  </rect>
</g><g transform="rotate(339.42857142857144 50 50)">
  <rect x="42.5" y="11.5" rx="7.5" ry="13.5" width="15" height="27" fill="#276e07">
    <animate attributeName="opacity" values="1;0" keyTimes="0;1" dur="1.36986301369863s" begin="-0.03913894324853228s" repeatCount="indefinite"></animate>
  </rect>
</g><g transform="rotate(349.7142857142857 50 50)">
  <rect x="42.5" y="11.5" rx="7.5" ry="13.5" width="15" height="27" fill="#276e07">
    <animate attributeName="opacity" values="1;0" keyTimes="0;1" dur="1.36986301369863s" begin="0s" repeatCount="indefinite"></animate>
  </rect>
</g>
<!-- [ldio] generated by https://loading.io/ --></svg>